<svg xmlns="http://www.w3.org/2000/svg" xmlns:xlink="http://www.w3.org/1999/xlink" width="500" zoomAndPan="magnify" viewBox="0 0 375 374.999991" height="500" preserveAspectRatio="xMidYMid meet" version="1.0"><defs><g/><clipPath id="id1"><path d="M 171.496094 158.480469 L 217.246094 158.480469 L 217.246094 216.230469 L 171.496094 216.230469 Z M 171.496094 158.480469 " clip-rule="nonzero"/></clipPath></defs><path fill="rgb(63.919067%, 4.309082%, 21.569824%)" d="M 187.5 0 C 83.945312 0 0 83.945312 0 187.5 C 0 291.054688 83.945312 375 187.5 375 C 291.054688 375 375 291.054688 375 187.5 C 375 83.945312 291.054688 0 187.5 0 " fill-opacity="1" fill-rule="nonzero"/><path fill="rgb(100%, 100%, 100%)" d="M 187.53125 375.027344 C 84.125 375.027344 0 290.917969 0 187.53125 C 0 84.125 84.125 0 187.53125 0 C 290.925781 0 375.035156 84.125 375.035156 187.53125 C 375.035156 290.917969 290.925781 375.027344 187.53125 375.027344 Z M 187.53125 18.570312 C 94.363281 18.570312 18.570312 94.363281 18.570312 187.53125 C 18.570312 280.683594 94.363281 356.464844 187.53125 356.464844 C 280.6875 356.464844 356.472656 280.683594 356.472656 187.53125 C 356.476562 94.363281 280.6875 18.570312 187.53125 18.570312 Z M 187.53125 18.570312 " fill-opacity="1" fill-rule="nonzero"/><path fill="rgb(100%, 100%, 100%)" d="M 187.523438 324.257812 C 112.121094 324.257812 50.769531 262.925781 50.769531 187.527344 C 50.769531 112.121094 112.121094 50.769531 187.523438 50.769531 C 262.929688 50.769531 324.265625 112.121094 324.265625 187.527344 C 324.265625 262.925781 262.929688 324.257812 187.523438 324.257812 Z M 187.523438 69.339844 C 122.355469 69.339844 69.339844 122.359375 69.339844 187.527344 C 69.339844 252.6875 122.359375 305.695312 187.523438 305.695312 C 252.6875 305.695312 305.703125 252.6875 305.703125 187.527344 C 305.703125 122.359375 252.6875 69.339844 187.523438 69.339844 Z M 187.523438 69.339844 " fill-opacity="1" fill-rule="nonzero"/><path fill="rgb(100%, 100%, 100%)" d="M 187.523438 274.9375 C 139.3125 274.9375 100.089844 235.726562 100.089844 187.523438 C 100.089844 139.3125 139.3125 100.089844 187.523438 100.089844 C 235.730469 100.089844 274.945312 139.3125 274.945312 187.523438 C 274.945312 235.726562 235.730469 274.9375 187.523438 274.9375 Z M 187.523438 118.660156 C 149.554688 118.660156 118.660156 149.550781 118.660156 187.523438 C 118.660156 225.488281 149.554688 256.375 187.523438 256.375 C 225.488281 256.375 256.382812 225.488281 256.382812 187.527344 C 256.382812 149.550781 225.488281 118.660156 187.523438 118.660156 Z M 187.523438 118.660156 " fill-opacity="1" fill-rule="nonzero"/><path fill="rgb(100%, 100%, 100%)" d="M 209.238281 185.644531 C 207.695312 214.234375 166.40625 214.238281 164.867188 185.644531 C 163.324219 157.019531 207.703125 157.183594 209.238281 185.644531 C 209.839844 196.808594 227.25 196.867188 226.644531 185.644531 C 225.4375 163.257812 209.433594 147.257812 187.042969 146.050781 C 164.703125 144.847656 148.566406 165.074219 147.457031 185.644531 C 146.257812 207.976562 166.476562 224.121094 187.042969 225.230469 C 209.375 226.433594 225.535156 206.214844 226.644531 185.644531 C 227.253906 174.421875 209.839844 174.480469 209.238281 185.644531 Z M 209.238281 185.644531 " fill-opacity="1" fill-rule="nonzero"/><path fill="rgb(63.919067%, 4.309082%, 21.569824%)" d="M 303.441406 305.824219 L 71.804688 305.824219 C 67.023438 305.824219 63.125 301.933594 63.125 297.15625 L 63.125 248.492188 C 63.125 243.714844 67.023438 239.824219 71.804688 239.824219 L 303.441406 239.824219 C 308.226562 239.824219 312.125 243.714844 312.125 248.492188 L 312.125 297.15625 C 312.125 301.933594 308.226562 305.824219 303.441406 305.824219 " fill-opacity="1" fill-rule="nonzero"/><path fill="rgb(63.919067%, 4.309082%, 21.569824%)" d="M 232.546875 129.304688 L 142.730469 129.304688 C 135.859375 129.304688 130.261719 123.710938 130.261719 116.84375 L 130.261719 45.019531 C 130.261719 38.152344 135.859375 32.554688 142.730469 32.554688 L 232.546875 32.554688 C 239.414062 32.554688 245.011719 38.152344 245.011719 45.019531 L 245.011719 116.84375 C 245.011719 123.710938 239.414062 129.304688 232.546875 129.304688 " fill-opacity="1" fill-rule="nonzero"/><path fill="rgb(100%, 100%, 100%)" d="M 187.375 146.125 C 164.59375 146.125 146.125 164.59375 146.125 187.375 C 146.125 210.15625 164.59375 228.625 187.375 228.625 C 210.15625 228.625 228.625 210.15625 228.625 187.375 C 228.625 164.59375 210.15625 146.125 187.375 146.125 " fill-opacity="1" fill-rule="nonzero"/><g fill="rgb(100%, 100%, 100%)" fill-opacity="1"><g transform="translate(69.898151, 296.843448)"><g><path d="M 11.640625 -48 C 6.058594 -48 3 -45 3 -39.359375 L 3 -25.199219 C 3 -24.058594 3.539062 -23.339844 4.621094 -22.980469 L 18.839844 -18.300781 L 18.839844 -10.320312 C 18.839844 -8.699219 18 -7.921875 16.441406 -7.921875 L 13.558594 -7.921875 C 12.058594 -7.921875 11.160156 -8.699219 11.160156 -10.320312 L 11.160156 -14.941406 C 11.160156 -15.601562 10.859375 -15.898438 10.199219 -15.898438 L 3.960938 -15.898438 C 3.359375 -15.898438 3 -15.601562 3 -14.941406 L 3 -8.640625 C 3 -3 6.058594 0 11.640625 0 L 18.359375 0 C 24 0 27 -3 27 -8.640625 L 27 -22.5 C 27 -23.640625 26.460938 -24.300781 25.441406 -24.71875 L 11.160156 -29.398438 L 11.160156 -37.679688 C 11.160156 -39.238281 12.058594 -40.078125 13.558594 -40.078125 L 16.441406 -40.078125 C 18.058594 -40.078125 18.839844 -39.238281 18.839844 -37.679688 L 18.839844 -33 C 18.839844 -32.398438 19.199219 -32.039062 19.800781 -32.039062 L 26.039062 -32.039062 C 26.699219 -32.039062 27 -32.398438 27 -33 L 27 -39.359375 C 27 -45 24 -48 18.359375 -48 Z M 11.640625 -48 "/></g></g></g><g fill="rgb(100%, 100%, 100%)" fill-opacity="1"><g transform="translate(99.898125, 296.843448)"><g><path d="M 18.839844 -27.960938 L 11.160156 -27.960938 L 11.160156 -47.039062 C 11.160156 -47.640625 10.800781 -48 10.199219 -48 L 4.019531 -48 C 3.300781 -48 3 -47.640625 3 -47.039062 L 3 -0.960938 C 3 -0.359375 3.300781 0 4.019531 0 L 10.199219 0 C 10.800781 0 11.160156 -0.359375 11.160156 -0.960938 L 11.160156 -20.039062 L 18.839844 -20.039062 L 18.839844 -0.960938 C 18.839844 -0.359375 19.199219 0 19.800781 0 L 25.980469 0 C 26.699219 0 27 -0.359375 27 -0.960938 L 27 -47.039062 C 27 -47.640625 26.699219 -48 25.980469 -48 L 19.800781 -48 C 19.199219 -48 18.839844 -47.640625 18.839844 -47.039062 Z M 18.839844 -27.960938 "/></g></g></g><g fill="rgb(100%, 100%, 100%)" fill-opacity="1"><g transform="translate(129.8981, 296.843448)"><g><path d="M 3 -8.640625 C 3 -3 6 0 11.640625 0 L 18.359375 0 C 24 0 27 -3 27 -8.640625 L 27 -39.359375 C 27 -45 24 -48 18.359375 -48 L 11.640625 -48 C 6 -48 3 -45 3 -39.359375 Z M 13.378906 -7.738281 C 11.820312 -7.738281 10.980469 -8.519531 10.980469 -10.140625 L 10.980469 -37.859375 C 10.980469 -39.421875 11.820312 -40.261719 13.378906 -40.261719 L 16.859375 -40.261719 C 18.421875 -40.261719 19.261719 -39.421875 19.261719 -37.859375 L 19.261719 -10.140625 C 19.261719 -8.519531 18.421875 -7.738281 16.859375 -7.738281 Z M 13.378906 -7.738281 "/></g></g></g><g fill="rgb(100%, 100%, 100%)" fill-opacity="1"><g transform="translate(159.898075, 296.843448)"><g><path d="M 3 -8.640625 C 3 -3 6 0 11.640625 0 L 18.359375 0 C 24 0 27 -3 27 -8.640625 L 27 -39.359375 C 27 -45 24 -48 18.359375 -48 L 11.640625 -48 C 6 -48 3 -45 3 -39.359375 Z M 13.378906 -7.738281 C 11.820312 -7.738281 10.980469 -8.519531 10.980469 -10.140625 L 10.980469 -37.859375 C 10.980469 -39.421875 11.820312 -40.261719 13.378906 -40.261719 L 16.859375 -40.261719 C 18.421875 -40.261719 19.261719 -39.421875 19.261719 -37.859375 L 19.261719 -10.140625 C 19.261719 -8.519531 18.421875 -7.738281 16.859375 -7.738281 Z M 13.378906 -7.738281 "/></g></g></g><g fill="rgb(100%, 100%, 100%)" fill-opacity="1"><g transform="translate(189.89805, 296.843448)"><g><path d="M 2.761719 -48 C 2.160156 -48 1.800781 -47.640625 1.800781 -47.039062 L 1.800781 -41.039062 C 1.800781 -40.441406 2.160156 -40.078125 2.761719 -40.078125 L 9.71875 -40.078125 L 9.71875 -0.960938 C 9.71875 -0.300781 10.078125 0 10.679688 0 L 16.921875 0 C 17.578125 0 17.878906 -0.300781 17.878906 -0.960938 L 17.878906 -40.078125 L 24.839844 -40.078125 C 25.5 -40.078125 25.800781 -40.441406 25.800781 -41.039062 L 25.800781 -47.039062 C 25.800781 -47.640625 25.5 -48 24.839844 -48 Z M 2.761719 -48 "/></g></g></g><g fill="rgb(100%, 100%, 100%)" fill-opacity="1"><g transform="translate(217.498028, 296.843448)"><g><path d="M 3 -8.640625 C 3 -3 6 0 11.640625 0 L 18.359375 0 C 24 0 27 -3 27 -8.640625 L 27 -39.359375 C 27 -45 24 -48 18.359375 -48 L 11.640625 -48 C 6 -48 3 -45 3 -39.359375 Z M 13.378906 -7.738281 C 11.820312 -7.738281 10.980469 -8.519531 10.980469 -10.140625 L 10.980469 -37.859375 C 10.980469 -39.421875 11.820312 -40.261719 13.378906 -40.261719 L 16.859375 -40.261719 C 18.421875 -40.261719 19.261719 -39.421875 19.261719 -37.859375 L 19.261719 -10.140625 C 19.261719 -8.519531 18.421875 -7.738281 16.859375 -7.738281 Z M 13.378906 -7.738281 "/></g></g></g><g fill="rgb(100%, 100%, 100%)" fill-opacity="1"><g transform="translate(247.498002, 296.843448)"><g><path d="M 20.28125 -48 C 19.621094 -48 19.078125 -47.460938 19.078125 -46.800781 L 19.078125 -10.320312 C 19.078125 -8.699219 18.238281 -7.921875 16.679688 -7.921875 L 13.558594 -7.921875 C 12 -7.921875 11.160156 -8.699219 11.160156 -10.320312 L 11.160156 -46.800781 C 11.160156 -47.460938 10.621094 -48 9.960938 -48 L 4.199219 -48 C 3.539062 -48 3 -47.460938 3 -46.800781 L 3 -8.640625 C 3 -3 6 0 11.640625 0 L 18.359375 0 C 24 0 27 -3 27 -8.640625 L 27 -46.800781 C 27 -47.460938 26.460938 -48 25.800781 -48 Z M 20.28125 -48 "/></g></g></g><g fill="rgb(100%, 100%, 100%)" fill-opacity="1"><g transform="translate(277.497989, 296.843448)"><g><path d="M 2.761719 -48 C 2.160156 -48 1.800781 -47.640625 1.800781 -47.039062 L 1.800781 -41.039062 C 1.800781 -40.441406 2.160156 -40.078125 2.761719 -40.078125 L 9.71875 -40.078125 L 9.71875 -0.960938 C 9.71875 -0.300781 10.078125 0 10.679688 0 L 16.921875 0 C 17.578125 0 17.878906 -0.300781 17.878906 -0.960938 L 17.878906 -40.078125 L 24.839844 -40.078125 C 25.5 -40.078125 25.800781 -40.441406 25.800781 -41.039062 L 25.800781 -47.039062 C 25.800781 -47.640625 25.5 -48 24.839844 -48 Z M 2.761719 -48 "/></g></g></g><g fill="rgb(100%, 100%, 100%)" fill-opacity="1"><g transform="translate(135.360024, 117.719836)"><g><path d="M 20.210938 -83.339844 C 10.523438 -83.339844 5.207031 -78.132812 5.207031 -68.339844 L 5.207031 -43.753906 C 5.207031 -41.773438 6.144531 -40.523438 8.019531 -39.898438 L 32.710938 -31.773438 L 32.710938 -17.917969 C 32.710938 -15.105469 31.253906 -13.75 28.542969 -13.75 L 23.542969 -13.75 C 20.9375 -13.75 19.375 -15.105469 19.375 -17.917969 L 19.375 -25.941406 C 19.375 -27.085938 18.855469 -27.605469 17.710938 -27.605469 L 6.875 -27.605469 C 5.832031 -27.605469 5.207031 -27.085938 5.207031 -25.941406 L 5.207031 -15 C 5.207031 -5.207031 10.523438 0 20.210938 0 L 31.878906 0 C 41.671875 0 46.878906 -5.207031 46.878906 -15 L 46.878906 -39.066406 C 46.878906 -41.046875 45.941406 -42.191406 44.171875 -42.921875 L 19.375 -51.046875 L 19.375 -65.421875 C 19.375 -68.128906 20.9375 -69.589844 23.542969 -69.589844 L 28.542969 -69.589844 C 31.355469 -69.589844 32.710938 -68.128906 32.710938 -65.421875 L 32.710938 -57.296875 C 32.710938 -56.253906 33.335938 -55.628906 34.378906 -55.628906 L 45.210938 -55.628906 C 46.359375 -55.628906 46.878906 -56.253906 46.878906 -57.296875 L 46.878906 -68.339844 C 46.878906 -78.132812 41.671875 -83.339844 31.878906 -83.339844 Z M 20.210938 -83.339844 "/></g></g></g><g fill="rgb(100%, 100%, 100%)" fill-opacity="1"><g transform="translate(187.444051, 117.719836)"><g><path d="M 46.984375 -68.339844 C 46.984375 -78.132812 41.671875 -83.339844 31.980469 -83.339844 L 20.3125 -83.339844 C 10.523438 -83.339844 5.207031 -78.132812 5.207031 -68.339844 L 5.207031 -15 C 5.207031 -5.207031 10.523438 0 20.3125 0 L 31.980469 0 C 41.671875 0 46.984375 -5.207031 46.984375 -15 L 46.984375 -26.253906 C 46.984375 -27.292969 46.359375 -27.917969 45.316406 -27.917969 L 34.898438 -27.917969 C 33.753906 -27.917969 33.230469 -27.292969 33.230469 -26.253906 L 33.230469 -17.917969 C 33.230469 -15.105469 31.773438 -13.75 29.066406 -13.75 L 23.648438 -13.75 C 20.9375 -13.75 19.480469 -15.105469 19.480469 -17.917969 L 19.480469 -65.421875 C 19.480469 -68.128906 20.835938 -69.589844 23.648438 -69.589844 L 29.066406 -69.589844 C 31.773438 -69.589844 33.230469 -68.128906 33.230469 -65.421875 L 33.230469 -57.089844 C 33.230469 -56.046875 33.753906 -55.421875 34.898438 -55.421875 L 45.316406 -55.421875 C 46.359375 -55.421875 46.984375 -56.046875 46.984375 -57.089844 Z M 46.984375 -68.339844 "/></g></g></g><g clip-path="url(#id1)"><path fill="rgb(63.919067%, 4.309082%, 21.569824%)" d="M 171.496094 158.496094 L 171.496094 216.21875 L 217.246094 187.355469 Z M 171.496094 158.496094 " fill-opacity="1" fill-rule="nonzero"/></g></svg>